<svg width="40" height="40" viewBox="0 0 40 40" fill="none" xmlns="http://www.w3.org/2000/svg">
<rect width="40" height="40" rx="20" fill="white"/>
<path fill-rule="evenodd" clip-rule="evenodd" d="M15.4683 7.41846V12.2489C12.8398 13.7705 11.07 16.6136 11.07 19.8669C11.07 24.7218 15.0116 28.6633 19.8666 28.6633C24.7216 28.6633 28.6631 24.7218 28.6631 19.8669C28.6631 16.6136 26.8933 13.7705 24.2648 12.2489V7.41846C29.3906 9.23165 33.0665 14.1234 33.0665 19.8669C33.0665 27.1521 27.1518 33.0668 19.8666 33.0668C12.5813 33.0668 6.6665 27.1521 6.6665 19.8669C6.6665 14.1234 10.3427 9.23165 15.4683 7.41846Z" fill="#0B78B2"/>
<path fill-rule="evenodd" clip-rule="evenodd" d="M17.6675 6.84957C18.3828 6.72945 19.1173 6.66675 19.8666 6.66675C20.6159 6.66675 21.3505 6.72945 22.0657 6.84957V11.348C21.3628 11.1668 20.6258 11.0705 19.8666 11.0705C19.1074 11.0705 18.3704 11.1668 17.6675 11.348V6.84957Z" fill="#0B78B2"/>
<path fill-rule="evenodd" clip-rule="evenodd" d="M17.6675 23.8991V13.6458C18.3555 13.4021 19.0957 13.2698 19.8666 13.2698C20.6375 13.2698 21.3777 13.4021 22.0657 13.6458V23.8991C21.3777 24.1427 20.6375 24.2752 19.8666 24.2752C19.0957 24.2752 18.3555 24.1427 17.6675 23.8991Z" fill="#0B78B2"/>
</svg>
