<?xml version="1.0" standalone="no"?>
<!DOCTYPE svg PUBLIC "-//W3C//DTD SVG 20010904//EN"
 "http://www.w3.org/TR/2001/REC-SVG-20010904/DTD/svg10.dtd">
<svg version="1.0" xmlns="http://www.w3.org/2000/svg"
 width="512.000000pt" height="512.000000pt" viewBox="0 0 512.000000 512.000000"
 preserveAspectRatio="xMidYMid meet">
<metadata>
Created by potrace 1.14, written by Peter Selinger 2001-2017
</metadata>
<g transform="translate(0.000000,512.000000) scale(0.100000,-0.100000)"
fill="#000000" stroke="none">
<path d="M2339 5066 c-2 -2 -35 -7 -72 -11 -37 -3 -76 -8 -85 -10 -9 -1 -39
-6 -66 -9 -118 -16 -370 -83 -471 -126 -11 -4 -36 -14 -55 -21 -80 -29 -282
-130 -382 -192 -535 -327 -923 -828 -1101 -1417 -19 -63 -40 -140 -46 -170 -6
-30 -14 -66 -16 -80 -11 -48 -22 -123 -34 -225 -9 -75 -6 -477 4 -535 3 -19
13 -78 21 -130 25 -152 66 -302 138 -498 30 -81 129 -277 193 -380 152 -247
361 -486 563 -642 24 -19 56 -45 70 -57 13 -13 28 -23 32 -23 3 0 13 -6 20
-13 18 -16 144 -100 188 -123 19 -11 37 -21 40 -24 25 -25 276 -138 411 -185
97 -34 293 -87 367 -100 17 -3 47 -8 65 -11 129 -22 264 -31 442 -28 183 2
235 5 320 19 17 2 48 7 70 11 201 29 502 127 708 230 126 62 380 217 422 257
7 7 32 28 56 47 157 126 341 319 451 474 195 274 350 612 413 901 48 216 60
331 60 565 -1 162 -8 296 -20 358 -2 11 -6 36 -9 55 -22 141 -99 415 -141 504
-8 17 -15 34 -15 38 0 11 -110 234 -143 290 -32 54 -135 211 -154 235 -106
135 -155 191 -243 280 -128 127 -144 141 -277 241 -274 206 -591 356 -915 434
-57 13 -119 27 -138 30 -19 3 -57 10 -85 15 -27 5 -68 12 -90 15 -44 7 -490
17 -496 11z"/>
</g>
</svg>
