<svg width="40" height="40" viewBox="0 0 40 40" fill="none" xmlns="http://www.w3.org/2000/svg">
<rect width="40" height="40" rx="20" fill="white"/>
<path d="M20.0001 22.0016C21.2887 22.0016 22.3334 20.957 22.3334 19.6683C22.3334 18.3796 21.2887 17.335 20.0001 17.335C18.7114 17.335 17.6667 18.3796 17.6667 19.6683C17.6667 20.957 18.7114 22.0016 20.0001 22.0016Z" fill="#39C1D7"/>
<path d="M20.0002 22.3343C18.5298 22.3343 17.3335 21.138 17.3335 19.6676C17.3335 18.1973 18.5298 17.001 20.0002 17.001C21.4705 17.001 22.6668 18.1973 22.6668 19.6676C22.6668 21.138 21.4705 22.3343 20.0002 22.3343ZM20.0002 17.6676C18.8972 17.6676 18.0002 18.5646 18.0002 19.6676C18.0002 20.7706 18.8972 21.6676 20.0002 21.6676C21.1032 21.6676 22.0002 20.7706 22.0002 19.6676C22.0002 18.5646 21.1032 17.6676 20.0002 17.6676Z" fill="#1F212B"/>
<path d="M32.8334 19.6677C32.8334 17.8757 30.6754 16.3247 27.3274 15.4017C28.1881 12.0363 27.9231 9.38999 26.3851 8.49199C25.7784 8.13765 25.0424 8.07299 24.1977 8.29899C22.9251 8.63965 21.4667 9.63565 20.0001 11.0987C18.5334 9.63565 17.0751 8.63999 15.8024 8.29899C14.9577 8.07265 14.2217 8.13765 13.6151 8.49199C12.0771 9.38999 11.8121 12.036 12.6727 15.4017C9.32475 16.3247 7.16675 17.8757 7.16675 19.6677C7.16675 21.4597 9.32475 23.0107 12.6727 23.934C11.8121 27.2993 12.0771 29.9457 13.6151 30.8437C13.9857 31.06 14.4044 31.169 14.8671 31.1687C15.1614 31.1687 15.4737 31.1247 15.8024 31.0367C17.0751 30.6957 18.5334 29.7 20.0001 28.237C21.4667 29.7 22.9251 30.6957 24.1977 31.0367C24.5264 31.1247 24.8387 31.1687 25.1331 31.1687C25.5957 31.1687 26.0144 31.0603 26.3851 30.8437C27.9231 29.9457 28.1877 27.2993 27.3274 23.934C30.6754 23.0107 32.8334 21.4597 32.8334 19.6677ZM24.4564 9.26465C24.6981 9.20032 24.9221 9.16765 25.1284 9.16765C25.4151 9.16765 25.6671 9.23032 25.8807 9.35532C26.9114 9.95732 27.1217 12.162 26.3541 15.159C25.2964 14.921 24.1424 14.742 22.9161 14.6313C22.1964 13.5937 21.4477 12.649 20.6934 11.8217C22.0327 10.4793 23.3467 9.56199 24.4564 9.26465ZM23.5851 21.7673C23.1921 22.456 22.7784 23.1157 22.3541 23.747C21.6007 23.8033 20.8154 23.8343 20.0001 23.8343C19.1847 23.8343 18.3994 23.8033 17.6464 23.747C17.2221 23.1157 16.8084 22.456 16.4154 21.7673C16.0091 21.0553 15.6444 20.354 15.3177 19.668C15.6444 18.982 16.0091 18.2807 16.4154 17.5683C16.8087 16.8793 17.2221 16.2197 17.6467 15.5883C18.3997 15.532 19.1847 15.501 20.0001 15.501C20.8154 15.501 21.6004 15.532 22.3537 15.5883C22.7781 16.2197 23.1917 16.8797 23.5851 17.5683C23.9914 18.2803 24.3561 18.9817 24.6827 19.668C24.3561 20.354 23.9914 21.0553 23.5851 21.7673ZM25.2147 20.8493C25.5617 21.6697 25.8484 22.4593 26.0804 23.21C25.3221 23.379 24.5034 23.52 23.6291 23.6243C23.9097 23.1823 24.1864 22.7303 24.4534 22.2627C24.7237 21.7897 24.9761 21.318 25.2147 20.8493ZM20.0001 26.7867C19.4547 26.1837 18.9104 25.516 18.3787 24.7937C18.9094 24.8193 19.4494 24.8343 20.0001 24.8343C20.5507 24.8343 21.0907 24.8193 21.6214 24.7937C21.0897 25.5157 20.5454 26.1833 20.0001 26.7867ZM16.3707 23.6243C15.4967 23.52 14.6777 23.379 13.9194 23.21C14.1514 22.4593 14.4381 21.6693 14.7851 20.8493C15.0237 21.318 15.2764 21.7897 15.5464 22.2627C15.8137 22.7307 16.0901 23.1827 16.3707 23.6243ZM14.7854 18.4863C14.4384 17.666 14.1514 16.876 13.9197 16.125C14.6781 15.956 15.4971 15.815 16.3714 15.7107C16.0904 16.1527 15.8141 16.605 15.5471 17.0727C15.2764 17.546 15.0241 18.0177 14.7854 18.4863ZM20.0001 12.549C20.5454 13.152 21.0897 13.8197 21.6214 14.542C21.0907 14.516 20.5507 14.501 20.0001 14.501C19.4494 14.501 18.9094 14.516 18.3787 14.5417C18.9104 13.8197 19.4547 13.152 20.0001 12.549ZM24.4534 17.073C24.1864 16.605 23.9097 16.153 23.6291 15.711C24.5034 15.8153 25.3221 15.9563 26.0807 16.1253C25.8487 16.8763 25.5621 17.666 25.2151 18.4867C24.9761 18.0177 24.7237 17.546 24.4534 17.073ZM14.1194 9.35532C14.3334 9.23032 14.5847 9.16765 14.8717 9.16765C15.0777 9.16765 15.3024 9.20032 15.5437 9.26465C16.6534 9.56199 17.9674 10.479 19.3067 11.8213C18.5524 12.6487 17.8037 13.5937 17.0841 14.631C15.8577 14.7417 14.7034 14.9207 13.6461 15.1587C12.8784 12.1617 13.0887 9.95699 14.1194 9.35532ZM8.16675 19.6677C8.16675 18.469 9.96708 17.1877 12.9451 16.3673C13.2681 17.4203 13.6921 18.5293 14.2137 19.6677C13.6921 20.806 13.2681 21.915 12.9451 22.968C9.96708 22.1477 8.16675 20.8663 8.16675 19.6677ZM15.5437 30.0707C14.9661 30.2247 14.4871 30.1943 14.1194 29.9803C13.0887 29.3783 12.8787 27.1737 13.6461 24.1767C14.7034 24.4147 15.8577 24.5937 17.0837 24.7043C17.8034 25.742 18.5521 26.6867 19.3064 27.5143C17.9674 28.8563 16.6534 29.7733 15.5437 30.0707ZM25.8807 29.9803C25.5131 30.195 25.0344 30.225 24.4564 30.0707C23.3467 29.7733 22.0327 28.8563 20.6934 27.514C21.4477 26.6867 22.1964 25.7417 22.9161 24.704C24.1424 24.5933 25.2964 24.4143 26.3537 24.1763C27.1217 27.1737 26.9114 29.3783 25.8807 29.9803ZM27.0551 22.968C26.7321 21.915 26.3081 20.806 25.7864 19.6677C26.3081 18.5293 26.7321 17.42 27.0551 16.3673C30.0331 17.1877 31.8334 18.469 31.8334 19.6677C31.8334 20.8663 30.0331 22.1477 27.0551 22.968Z" fill="#39C1D7"/>
<path d="M14.865 31.3352C14.3747 31.3352 13.926 31.2182 13.5313 30.9876C11.9873 30.0859 11.6037 27.5622 12.472 24.0506C8.99167 23.0609 7 21.4679 7 19.6679C7 17.8679 8.99167 16.2749 12.4717 15.2852C11.6037 11.7736 11.9873 9.24989 13.5313 8.34822C14.1773 7.97022 14.9557 7.89956 15.8457 8.13822C17.085 8.47022 18.519 9.41156 20 10.8646C21.4813 9.41156 22.9153 8.47022 24.1543 8.13822C25.044 7.90022 25.8227 7.97089 26.469 8.34822C28.0127 9.24989 28.3963 11.7736 27.5283 15.2852C31.0083 16.2749 33 17.8679 33 19.6679C33 21.4679 31.0083 23.0609 27.5283 24.0506C28.3963 27.5622 28.013 30.0856 26.469 30.9876C25.8267 31.3626 25.0403 31.4349 24.1547 31.1976C22.915 30.8656 21.481 29.9242 20 28.4716C18.519 29.9242 17.085 30.8659 15.8457 31.1976C15.5047 31.2889 15.1753 31.3352 14.867 31.3352C14.8663 31.3352 14.8657 31.3352 14.865 31.3352ZM14.868 8.33422C14.4343 8.33422 14.0433 8.43489 13.699 8.63622C12.291 9.45856 11.9677 11.9722 12.834 15.3606C12.8563 15.4486 12.8043 15.5386 12.7167 15.5626C9.346 16.4919 7.33333 18.0269 7.33333 19.6679C7.33333 21.3089 9.346 22.8439 12.717 23.7732C12.8047 23.7972 12.8567 23.8872 12.8343 23.9752C11.9677 27.3636 12.291 29.8776 13.699 30.6996C14.0423 30.8999 14.4347 31.0016 14.865 31.0016C14.8657 31.0016 14.8663 31.0016 14.867 31.0016C15.1463 31.0016 15.4463 30.9592 15.7593 30.8756C16.975 30.5499 18.401 29.5969 19.8823 28.1189C19.9473 28.0542 20.0527 28.0542 20.1177 28.1189C21.599 29.5966 23.025 30.5496 24.2407 30.8756C25.0387 31.0886 25.7357 31.0292 26.301 30.6996C27.709 29.8772 28.0323 27.3636 27.1657 23.9752C27.1433 23.8872 27.1953 23.7972 27.283 23.7732C30.654 22.8439 32.6667 21.3089 32.6667 19.6679C32.6667 18.0269 30.654 16.4919 27.283 15.5626C27.1953 15.5386 27.1433 15.4486 27.1657 15.3606C28.032 11.9722 27.7087 9.45822 26.3007 8.63622C25.7343 8.30522 25.041 8.24622 24.2403 8.46022C23.0247 8.78589 21.599 9.73889 20.1173 11.2169C20.0523 11.2816 19.947 11.2816 19.882 11.2169C18.4003 9.73889 16.9747 8.78589 15.759 8.46022C15.4453 8.37622 15.148 8.33422 14.868 8.33422ZM25.1287 30.3342C24.9077 30.3342 24.669 30.3002 24.4133 30.2319C23.303 29.9342 21.976 29.0356 20.5753 27.6319C20.5127 27.5689 20.5103 27.4676 20.57 27.4019C21.325 26.5739 22.068 25.6342 22.779 24.6092C22.807 24.5686 22.8517 24.5426 22.901 24.5382C24.105 24.4296 25.2543 24.2532 26.3173 24.0139C26.4043 23.9942 26.493 24.0476 26.5153 24.1352C27.294 27.1762 27.083 29.4712 25.9647 30.1242C25.725 30.2642 25.4453 30.3342 25.1287 30.3342ZM20.9237 27.5082C22.2407 28.8062 23.4747 29.6352 24.4993 29.9099C25.0323 30.0522 25.469 30.0276 25.7967 29.8366C26.7483 29.2806 26.9157 27.1456 26.232 24.3742C25.2227 24.5939 24.1397 24.7582 23.0087 24.8632C22.3367 25.8272 21.636 26.7159 20.9237 27.5082ZM14.8713 30.3342C14.5547 30.3342 14.275 30.2642 14.0353 30.1246C12.917 29.4712 12.7057 27.1762 13.4847 24.1352C13.507 24.0479 13.5957 23.9956 13.6827 24.0139C14.7453 24.2532 15.8947 24.4296 17.099 24.5382C17.148 24.5426 17.193 24.5686 17.221 24.6092C17.932 25.6342 18.675 26.5739 19.43 27.4019C19.49 27.4676 19.4877 27.5689 19.4247 27.6319C18.024 29.0352 16.697 29.9342 15.587 30.2319C15.331 30.2999 15.092 30.3342 14.8713 30.3342ZM13.768 24.3742C13.0843 27.1452 13.2517 29.2806 14.2033 29.8366C14.5307 30.0272 14.9673 30.0522 15.5007 29.9099C16.5253 29.6352 17.7593 28.8059 19.0763 27.5082C18.3643 26.7159 17.6637 25.8272 16.9917 24.8632C15.8607 24.7582 14.7773 24.5939 13.768 24.3742ZM20 26.9532C19.953 26.9532 19.908 26.9332 19.8763 26.8982C19.322 26.2852 18.773 25.6102 18.2443 24.8922C18.2063 24.8406 18.2013 24.7712 18.2317 24.7146C18.262 24.6579 18.3187 24.6232 18.3867 24.6269C19.4887 24.6806 20.5113 24.6806 21.6133 24.6269C21.68 24.6229 21.738 24.6579 21.7683 24.7146C21.7987 24.7712 21.794 24.8402 21.7557 24.8922C21.227 25.6099 20.678 26.2849 20.1237 26.8982C20.092 26.9332 20.047 26.9532 20 26.9532ZM18.7223 24.9759C19.1393 25.5276 19.568 26.0512 20 26.5372C20.4323 26.0512 20.8607 25.5279 21.2777 24.9759C20.407 25.0092 19.593 25.0092 18.7223 24.9759ZM20 24.0012C19.2103 24.0012 18.4143 23.9719 17.6337 23.9136C17.5827 23.9099 17.5363 23.8829 17.5077 23.8402C17.062 23.1772 16.6457 22.5076 16.2703 21.8502C15.877 21.1609 15.5057 20.4509 15.167 19.7396C15.1453 19.6942 15.1453 19.6416 15.167 19.5962C15.5057 18.8849 15.877 18.1749 16.2703 17.4856C16.6453 16.8289 17.0617 16.1592 17.508 15.4952C17.5363 15.4529 17.583 15.4259 17.634 15.4219C19.1953 15.3052 20.805 15.3052 22.366 15.4219C22.417 15.4256 22.4633 15.4526 22.492 15.4952C22.9383 16.1592 23.3547 16.8289 23.7297 17.4856C24.123 18.1749 24.4943 18.8849 24.833 19.5962C24.8547 19.6416 24.8547 19.6942 24.833 19.7396C24.4943 20.4509 24.123 21.1609 23.7297 21.8502C23.3543 22.5076 22.938 23.1772 22.4923 23.8402C22.464 23.8826 22.4173 23.9096 22.3663 23.9136C21.5857 23.9719 20.7897 24.0012 20 24.0012ZM17.7393 23.5869C19.2323 23.6942 20.7677 23.6942 22.2603 23.5869C22.6847 22.9526 23.0813 22.3129 23.44 21.6846C23.816 21.0256 24.1717 20.3476 24.4977 19.6679C24.1717 18.9882 23.816 18.3099 23.44 17.6512C23.0817 17.0236 22.685 16.3839 22.26 15.7486C20.767 15.6412 19.232 15.6412 17.739 15.7486C17.3143 16.3839 16.9173 17.0236 16.559 17.6512C16.183 18.3102 15.8273 18.9882 15.5013 19.6679C15.8273 20.3476 16.183 21.0259 16.559 21.6846C16.9183 22.3132 17.315 22.9526 17.7393 23.5869ZM23.6293 23.7916C23.5727 23.7916 23.519 23.7626 23.4883 23.7139C23.454 23.6592 23.4543 23.5899 23.4887 23.5356C23.798 23.0486 24.0663 22.6052 24.3087 22.1806C24.5633 21.7346 24.818 21.2612 25.0663 20.7742C25.0957 20.7166 25.1573 20.6822 25.2207 20.6836C25.2853 20.6859 25.343 20.7252 25.3683 20.7852C25.7067 21.5849 25.9997 22.3846 26.2397 23.1616C26.2537 23.2059 26.248 23.2542 26.2247 23.2942C26.2013 23.3346 26.162 23.3632 26.1167 23.3732C25.3333 23.5482 24.503 23.6886 23.649 23.7906C23.6423 23.7912 23.6357 23.7916 23.6293 23.7916ZM25.1987 21.2449C25.0007 21.6242 24.7993 21.9932 24.5983 22.3456C24.404 22.6862 24.193 23.0386 23.9583 23.4152C24.615 23.3279 25.255 23.2176 25.8673 23.0862C25.675 22.4816 25.451 21.8646 25.1987 21.2449ZM16.3707 23.7916C16.364 23.7916 16.3573 23.7912 16.3507 23.7906C15.497 23.6882 14.6667 23.5479 13.8833 23.3729C13.838 23.3629 13.799 23.3342 13.7753 23.2939C13.752 23.2536 13.7467 23.2056 13.7603 23.1612C14.0003 22.3839 14.2933 21.5846 14.6317 20.7849C14.657 20.7252 14.7147 20.6856 14.7793 20.6832C14.84 20.6769 14.9043 20.7162 14.9337 20.7739C15.182 21.2609 15.4367 21.7342 15.6913 22.1802C15.934 22.6049 16.2023 23.0482 16.5113 23.5352C16.546 23.5896 16.546 23.6589 16.5117 23.7136C16.481 23.7626 16.4277 23.7916 16.3707 23.7916ZM14.133 23.0862C14.7453 23.2176 15.3853 23.3279 16.042 23.4152C15.807 23.0386 15.5963 22.6862 15.402 22.3456C15.2007 21.9932 14.9997 21.6239 14.8017 21.2449C14.549 21.8646 14.325 22.4816 14.133 23.0862ZM27.055 23.1349C26.9833 23.1349 26.9177 23.0886 26.8957 23.0169C26.5707 21.9572 26.1463 20.8539 25.635 19.7376C25.6147 19.6936 25.6147 19.6426 25.635 19.5986C26.1463 18.4822 26.5707 17.3786 26.896 16.3186C26.9227 16.2322 27.014 16.1839 27.0997 16.2069C30.1223 17.0399 32 18.3659 32 19.6679C32 20.9699 30.122 22.2959 27.099 23.1289C27.0843 23.1329 27.0693 23.1349 27.055 23.1349ZM25.9697 19.6679C26.4483 20.7196 26.8507 21.7602 27.166 22.7639C29.9057 21.9829 31.6667 20.7752 31.6667 19.6679C31.6667 18.5606 29.9057 17.3529 27.166 16.5719C26.8503 17.5759 26.448 18.6166 25.9697 19.6679ZM12.945 23.1349C12.9303 23.1349 12.9157 23.1329 12.9007 23.1289C9.878 22.2959 8 20.9699 8 19.6679C8 18.3659 9.87767 17.0399 12.9007 16.2069C12.9867 16.1839 13.0777 16.2322 13.1043 16.3186C13.4297 17.3786 13.854 18.4822 14.3653 19.5986C14.3857 19.6426 14.3857 19.6932 14.3653 19.7376C13.8537 20.8542 13.4297 21.9576 13.1047 23.0169C13.0827 23.0886 13.0167 23.1349 12.945 23.1349ZM12.834 16.5719C10.0943 17.3529 8.33333 18.5606 8.33333 19.6679C8.33333 20.7752 10.0943 21.9829 12.834 22.7639C13.1497 21.7602 13.5517 20.7199 14.0303 19.6679C13.552 18.6166 13.1497 17.5759 12.834 16.5719ZM25.215 18.6536C25.1523 18.6536 25.095 18.6186 25.0663 18.5626C24.814 18.0666 24.566 17.6062 24.309 17.1559C24.067 16.7319 23.7987 16.2886 23.4887 15.8006C23.454 15.7462 23.454 15.6769 23.4883 15.6222C23.5227 15.5679 23.584 15.5379 23.6493 15.5456C24.5037 15.6479 25.334 15.7882 26.1173 15.9629C26.1627 15.9729 26.2017 16.0016 26.2253 16.0419C26.2487 16.0822 26.254 16.1302 26.2403 16.1746C26 16.9532 25.7067 17.7529 25.369 18.5516C25.3437 18.6112 25.286 18.6509 25.2213 18.6532C25.2187 18.6536 25.2167 18.6536 25.215 18.6536ZM24.598 16.9906C24.8017 17.3472 24.9997 17.7099 25.1983 18.0912C25.4503 17.4726 25.6743 16.8549 25.8667 16.2496C25.2543 16.1182 24.6143 16.0079 23.9573 15.9206C24.1933 16.2979 24.404 16.6502 24.598 16.9906ZM14.785 18.6536C14.783 18.6536 14.781 18.6536 14.779 18.6536C14.7143 18.6512 14.6567 18.6119 14.6313 18.5519C14.2937 17.7532 14.0003 16.9536 13.76 16.1749C13.746 16.1306 13.7517 16.0822 13.775 16.0422C13.7983 16.0019 13.8377 15.9732 13.883 15.9632C14.6663 15.7882 15.4967 15.6479 16.351 15.5459C16.416 15.5392 16.4777 15.5682 16.512 15.6226C16.5463 15.6772 16.546 15.7466 16.5117 15.8009C16.2017 16.2889 15.9333 16.7322 15.6913 17.1562C15.4343 17.6066 15.1863 18.0666 14.934 18.5629C14.905 18.6186 14.8477 18.6536 14.785 18.6536ZM14.133 16.2496C14.3253 16.8549 14.5497 17.4726 14.8013 18.0912C15.0003 17.7099 15.198 17.3472 15.4017 16.9906C15.596 16.6502 15.8067 16.2979 16.042 15.9206C15.3853 16.0079 14.7453 16.1182 14.133 16.2496ZM26.3543 15.3259C26.342 15.3259 26.33 15.3246 26.3177 15.3219C25.255 15.0826 24.1053 14.9062 22.901 14.7976C22.852 14.7932 22.807 14.7672 22.779 14.7266C22.068 13.7012 21.3247 12.7619 20.57 11.9342C20.51 11.8686 20.5123 11.7672 20.5753 11.7042C21.9757 10.3009 23.303 9.40156 24.4133 9.10422C25.0363 8.93756 25.5593 8.97522 25.9647 9.21156C27.083 9.86489 27.2943 12.1599 26.5157 15.2009C26.4963 15.2756 26.429 15.3259 26.3543 15.3259ZM23.0083 14.4726C24.1393 14.5776 25.2227 14.7419 26.232 14.9616C26.9157 12.1906 26.7483 10.0552 25.7963 9.49922C25.47 9.30889 25.0327 9.28389 24.4993 9.42589C23.4747 9.70056 22.2403 10.5299 20.9233 11.8279C21.6357 12.6196 22.3363 13.5082 23.0083 14.4726ZM13.6457 15.3259C13.571 15.3259 13.5037 15.2756 13.4843 15.2006C12.7057 12.1596 12.9167 9.86489 14.035 9.21156C14.035 9.21156 14.035 9.21156 14.0353 9.21156C14.4407 8.97522 14.9643 8.93756 15.5863 9.10422C16.697 9.40189 18.024 10.3009 19.4243 11.7042C19.487 11.7672 19.4893 11.8686 19.4297 11.9342C18.675 12.7619 17.9317 13.7016 17.2207 14.7266C17.1927 14.7672 17.148 14.7932 17.0987 14.7976C15.8947 14.9062 14.745 15.0826 13.682 15.3219C13.67 15.3246 13.658 15.3259 13.6457 15.3259ZM14.2033 9.49922C13.2517 10.0552 13.0843 12.1906 13.7677 14.9616C14.777 14.7419 15.8603 14.5776 16.9913 14.4726C17.6637 13.5082 18.364 12.6196 19.076 11.8276C17.759 10.5296 16.525 9.70022 15.5 9.42556C14.969 9.28389 14.531 9.30856 14.2033 9.49922ZM21.6213 14.7086C21.6187 14.7086 21.616 14.7086 21.6133 14.7086C20.5113 14.6549 19.489 14.6549 18.387 14.7086C18.3183 14.7102 18.2623 14.6772 18.232 14.6209C18.2017 14.5642 18.2063 14.4952 18.2447 14.4432C18.7737 13.7249 19.3227 13.0499 19.8767 12.4372C19.94 12.3676 20.0607 12.3676 20.124 12.4372C20.6777 13.0496 21.2267 13.7246 21.756 14.4432C21.794 14.4949 21.799 14.5642 21.7687 14.6209C21.739 14.6749 21.6823 14.7086 21.6213 14.7086ZM20 14.3346C20.414 14.3346 20.8423 14.3432 21.2777 14.3602C20.8603 13.8079 20.4317 13.2842 20 12.7989C19.5683 13.2846 19.1397 13.8079 18.7223 14.3602C19.1577 14.3432 19.586 14.3346 20 14.3346Z" fill="#1F212B"/>
</svg>
