<svg width="40" height="40" viewBox="0 0 40 40" fill="none" xmlns="http://www.w3.org/2000/svg">
<rect width="40" height="40" rx="20" fill="white"/>
<g clip-path="url(#clip0_5_24)">
<path fill-rule="evenodd" clip-rule="evenodd" d="M24.4809 32.374L24.4256 11.1137C24.2822 10.9705 24.0026 11.0137 23.8933 11.0456L23.1652 11.2711C23.0753 10.9756 22.9587 10.689 22.8168 10.4147C22.3001 9.42929 21.545 8.90824 20.6309 8.90682H20.6281C20.5671 8.90682 20.5068 8.91249 20.4457 8.91746L20.4386 8.91817C20.4122 8.88564 20.3847 8.85396 20.3563 8.82317C19.9589 8.39782 19.4479 8.19011 18.8362 8.20783C17.6567 8.24186 16.4822 9.09398 15.5291 10.6075C14.8584 11.673 14.3496 13.0107 14.2041 14.0465L11.8813 14.766C11.1979 14.9808 11.1766 15.0021 11.0865 15.6465C11.0191 16.1342 9.22998 29.9715 9.22998 29.9715L24.224 32.5647L24.4809 32.3733V32.374ZM19.5686 9.17976C19.3691 9.04861 19.1357 8.98764 18.8589 8.99331C17.0379 9.04577 15.4496 11.8906 15.0444 13.7863L16.7888 13.2461L17.1003 13.1497C17.3288 11.9459 17.9022 10.6968 18.6524 9.89292C18.9146 9.60486 19.2243 9.36367 19.5679 9.17976H19.5686ZM17.9626 12.8824L20.4663 12.1069C20.4741 11.4547 20.4031 10.4905 20.0767 9.80998C19.7289 9.95318 19.4366 10.2041 19.2265 10.4289C18.6637 11.0336 18.2046 11.9559 17.9633 12.8824H17.9626ZM21.2505 11.8644L22.4144 11.5036C22.2284 10.8996 21.787 9.88725 20.8921 9.71711C21.1703 10.4352 21.242 11.2668 21.2505 11.8644Z" fill="#95BF47"/>
<path d="M27.8406 12.6951C27.7512 12.688 26.0182 12.6611 26.0182 12.6611C26.0182 12.6611 24.5683 11.2532 24.425 11.1092C24.3695 11.0581 24.2991 11.0258 24.2241 11.0171V32.561L30.7212 30.9454C30.7212 30.9454 28.0699 13.0162 28.0528 12.8936C28.0446 12.8415 28.0192 12.7937 27.9806 12.7577C27.942 12.7217 27.8925 12.6997 27.8399 12.6951H27.8406Z" fill="#5E8E3E"/>
<path d="M20.623 16.0405L19.8679 18.8648C19.8679 18.8648 19.0262 18.4812 18.0277 18.5443C16.5644 18.6365 16.5487 19.5602 16.5636 19.792C16.6431 21.0539 19.9651 21.3304 20.1518 24.2887C20.2987 26.616 18.9176 28.209 16.9277 28.3337C14.5396 28.4847 13.2246 27.0754 13.2246 27.0754L13.7306 24.9217C13.7306 24.9217 15.0542 25.9206 16.113 25.8533C16.8056 25.81 17.0526 25.2471 17.0278 24.8487C16.9234 23.2019 14.2182 23.2983 14.0471 20.5917C13.9038 18.3125 15.3991 16.005 18.6998 15.7966C19.9715 15.7158 20.623 16.0412 20.623 16.0412" fill="white"/>
</g>
<defs>
<clipPath id="clip0_5_24">
<rect x="9" y="8" width="22" height="24.812" fill="white"/>
</clipPath>
</defs>
</svg>
